# xmcd
#
# Track frame offsets: 
#        150
#        16105
#        34321
#        51366
#        71313
#        87668
#
# Disc length: 1415 seconds
#
# Revision: 0
# Processed by: cddbd v1.5.2PL0 Copyright (c) Steve Scherf et al.
# Submitted via: ExactAudioCopy v1.0b3
#
DISCID=49058506
DTITLE=Joe Marx - J'embarque
DYEAR=2009
DGENRE=Chanson
TTITLE0=Caravane de Bohémiens
TTITLE1=Je veux être ton Homme
TTITLE2=Nuit Lutécienne
TTITLE3=Raz de Marée
TTITLE4=Blanche Neige
TTITLE5=J'embarque sur la Nef
EXTD=
EXTT0=
EXTT1=
EXTT2=
EXTT3=
EXTT4=
EXTT5=
PLAYORDER=
